# xmcd
#
# Track frame offsets: 
#        150
#        5253
#        21223
#        42397
#        52602
#        65358
#        80665
#        92094
#        105360
#        118269
#        132147
#        146994
#        164852
#        185363
#        197200
#        217762
#        224752
#        242967
#        250570
#        259550
#        266132
#        285112
#        296184
#        305062
#        321440
#        336849
#
# Disc length: 4657 seconds
#
# Revision: 0
# Processed by: cddbd v1.5.2PL0 Copyright (c) Steve Scherf et al.
# Submitted via: ExactAudioCopy v0.99pb5
#
DISCID=8e122f1a
DTITLE=Elvis Presley  - FTD 47 - Big Boss Man - 03-28-1975  
DYEAR=1900
DGENRE=
TTITLE0=2001 Theme
TTITLE1=See See Rider
TTITLE2=I Got A Woman-Amen
TTITLE3=Love Me
TTITLE4=If You Love Me
TTITLE5=And I Love You So
TTITLE6=Big Boss Man
TTITLE7=It's Midnight
TTITLE8=Promised Land
TTITLE9=Burning Love
TTITLE10=Introductions
TTITLE11=Introductions Continued
TTITLE12=My Boy
TTITLE13=I'll Remember You
TTITLE14=Let Me Be There
TTITLE15=Hound Dog
TTITLE16=American Trilogy
TTITLE17=Can't Help Falling In Love
TTITLE18=You Don't Have To Say You Love Me
TTITLE19=The Wonder Of You
TTITLE20=Bridge Over Troubled Water
TTITLE21=Little Darlin'
TTITLE22=Hawaiian Wedding Song
TTITLE23=Green Green Grass Of Home
TTITLE24=Fairytale
TTITLE25=You're The Reason I'm Living
EXTD=
EXTT0=
EXTT1=
EXTT2=
EXTT3=
EXTT4=
EXTT5=
EXTT6=
EXTT7=
EXTT8=
EXTT9=
EXTT10=
EXTT11=
EXTT12=
EXTT13=
EXTT14=
EXTT15=
EXTT16=
EXTT17=
EXTT18=
EXTT19=
EXTT20=
EXTT21=
EXTT22=
EXTT23=
EXTT24=
EXTT25=
PLAYORDER=
